<svg width="17" height="21" viewBox="0 0 17 21" fill="none" xmlns="http://www.w3.org/2000/svg">
<path d="M7.02384 16.3548H5.64976C5.55821 16.3548 5.49707 16.4159 5.49707 16.5075C5.49707 16.599 5.55821 16.6602 5.64976 16.6602H7.02384C7.1154 16.6602 7.17654 16.599 7.17654 16.5075C7.17654 16.4311 7.10026 16.3548 7.02384 16.3548Z" fill="#5D6679"/>
<path d="M15.6778 1.34641C15.228 0.896639 14.6305 0.649204 13.9939 0.649204L2.56664 0.648926C1.93011 0.648926 1.33285 0.896361 0.882756 1.34613C0.432982 1.79591 0.185547 2.39346 0.185547 3.03002V18.2678C0.185547 18.9044 0.432982 19.5016 0.882756 19.9517C1.33253 20.4015 1.93008 20.6489 2.56664 20.6489H13.9954C14.6319 20.6489 15.2291 20.4015 15.6792 19.9517C16.129 19.5019 16.3764 18.9044 16.3764 18.2678V3.03002C16.3753 2.39376 16.1279 1.79623 15.6781 1.34642L15.6778 1.34641ZM15.4234 18.2686C15.4234 19.0566 14.783 19.697 13.9951 19.697H2.56633C1.77836 19.697 1.13796 19.0566 1.13796 18.2686V3.03008C1.13796 2.24211 1.77839 1.60171 2.56633 1.60171H13.9951C14.783 1.60171 15.4234 2.24214 15.4234 3.03008V18.2686Z" fill="#5D6679"/>
<path d="M6.03895 9.36005L4.47085 10.9284L3.85547 10.3131C3.66982 10.1274 3.36756 10.1274 3.1822 10.3131C2.99656 10.4987 2.99656 10.801 3.1822 10.9863L4.1349 11.939C4.2248 12.0289 4.34532 12.0787 4.47196 12.0787C4.59859 12.0787 4.71939 12.0289 4.80901 11.939L6.71413 10.0339C6.89978 9.84826 6.89978 9.546 6.71413 9.36064C6.52849 9.17472 6.22428 9.17361 6.03891 9.36008L6.03895 9.36005Z" fill="#5D6679"/>
<path d="M6.03895 14.1211L4.47085 15.6892L3.85547 15.0738C3.66982 14.8881 3.36756 14.8881 3.1822 15.0738C2.99656 15.2594 2.99656 15.5617 3.1822 15.7471L4.1349 16.6998C4.2248 16.7897 4.34532 16.8395 4.47196 16.8395C4.59859 16.8395 4.71939 16.7897 4.80901 16.6998L6.71413 14.7946C6.89978 14.609 6.89978 14.3067 6.71413 14.1214C6.52849 13.9354 6.22428 13.9354 6.03891 14.1211L6.03895 14.1211Z" fill="#5D6679"/>
<path d="M6.03895 4.59761L4.47085 6.16571L3.85547 5.55033C3.66982 5.36469 3.36756 5.36469 3.1822 5.55033C2.99656 5.73598 2.99656 6.03824 3.1822 6.2236L4.1349 7.17631C4.2248 7.2662 4.34532 7.31602 4.47196 7.31602C4.59859 7.31602 4.71939 7.2662 4.80901 7.17631L6.71413 5.27119C6.89978 5.08554 6.89978 4.78328 6.71413 4.59792C6.52849 4.41227 6.22428 4.41227 6.03891 4.59764L6.03895 4.59761Z" fill="#5D6679"/>
<path d="M13.0428 10.173H8.28062C8.01733 10.173 7.80469 10.3865 7.80469 10.649C7.80469 10.9114 8.01816 11.1249 8.28062 11.1249H13.0428C13.3061 11.1249 13.5187 10.9114 13.5187 10.649C13.5187 10.3857 13.3052 10.173 13.0428 10.173Z" fill="#5D6679"/>
<path d="M13.0428 15.8874H8.28062C8.01733 15.8874 7.80469 16.1009 7.80469 16.3633C7.80469 16.6258 8.01816 16.8393 8.28062 16.8393H13.0428C13.3061 16.8393 13.5187 16.6258 13.5187 16.3633C13.5187 16.1009 13.3052 15.8874 13.0428 15.8874Z" fill="#5D6679"/>
<path d="M13.0428 5.41059H8.28062C8.01733 5.41059 7.80469 5.62407 7.80469 5.88653C7.80469 6.14899 8.01816 6.36247 8.28062 6.36247H13.0428C13.3061 6.36247 13.5187 6.14899 13.5187 5.88653C13.5187 5.62407 13.3052 5.41059 13.0428 5.41059Z" fill="#5D6679"/>
<path d="M7.02384 17.4233H5.64976C5.55821 17.4233 5.49707 17.4844 5.49707 17.576C5.49707 17.6675 5.55821 17.7287 5.64976 17.7287H7.02384C7.1154 17.7287 7.17654 17.6675 7.17654 17.576C7.17654 17.4844 7.10026 17.4233 7.02384 17.4233Z" fill="#5D6679"/>
</svg>
