<svg width="20" height="21" viewBox="0 0 20 21" fill="none" xmlns="http://www.w3.org/2000/svg">
<path d="M14.4445 19.3889V11.3039C14.4445 11.0008 14.7022 10.7551 15.0001 10.7551C15.3068 10.7551 15.5556 10.9946 15.5556 11.3039V19.3889H16.675C17.889 19.3889 18.889 18.3918 18.889 17.1749V3.82498C18.889 2.61098 17.8919 1.61099 16.675 1.61099H3.32512C2.11113 1.61099 1.11113 2.60806 1.11113 3.82498V17.1749C1.11113 18.3889 2.1082 19.3889 3.32512 19.3889H4.44454V14.0903C4.44454 13.7776 4.70221 13.5239 5.00007 13.5239C5.30685 13.5239 5.5556 13.7703 5.5556 14.0903V19.3889H7.77784V8.53787C7.77784 8.23333 8.03551 7.98652 8.33337 7.98652C8.64029 7.98652 8.88904 8.22424 8.88904 8.53787V19.3889H11.1111V4.38611C11.1111 4.08087 11.3689 3.83337 11.6668 3.83337C11.9736 3.83337 12.2223 4.08114 12.2223 4.38611V19.3889H14.4445ZM0 3.82505C0 1.9887 1.5032 0.5 3.32505 0.5H16.675C18.5113 0.5 20 2.0032 20 3.82505V17.175C20 19.0113 18.4968 20.5 16.675 20.5H3.32505C1.4887 20.5 0 18.9968 0 17.175V3.82505Z" fill="#5D6679"/>
</svg>
