<svg width="19" height="19" viewBox="0 0 19 19" fill="none" xmlns="http://www.w3.org/2000/svg">
<mask id="mask0_569_8513" style="mask-type:luminance" maskUnits="userSpaceOnUse" x="0" y="0" width="19" height="19">
<rect x="0.5" y="0.25" width="18" height="18" fill="white"/>
</mask>
<g mask="url(#mask0_569_8513)">
<path fill-rule="evenodd" clip-rule="evenodd" d="M16.8541 7.78113H16.25V7.75H9.5V10.75H13.7386C13.1203 12.4964 11.4586 13.75 9.5 13.75C7.01488 13.75 5 11.7351 5 9.25C5 6.76488 7.01488 4.75 9.5 4.75C10.6471 4.75 11.6908 5.18275 12.4854 5.88963L14.6067 3.76825C13.2673 2.51987 11.4755 1.75 9.5 1.75C5.35813 1.75 2 5.10813 2 9.25C2 13.3919 5.35813 16.75 9.5 16.75C13.6419 16.75 17 13.3919 17 9.25C17 8.74713 16.9482 8.25625 16.8541 7.78113Z" fill="#FFC107"/>
<path fill-rule="evenodd" clip-rule="evenodd" d="M2.86475 5.75912L5.32887 7.56625C5.99562 5.9155 7.61037 4.75 9.5 4.75C10.6471 4.75 11.6907 5.18275 12.4854 5.88962L14.6067 3.76825C13.2672 2.51987 11.4755 1.75 9.5 1.75C6.61925 1.75 4.121 3.37637 2.86475 5.75912Z" fill="#FF3D00"/>
<path fill-rule="evenodd" clip-rule="evenodd" d="M9.50012 16.7503C11.4374 16.7503 13.1976 16.0089 14.5285 14.8033L12.2072 12.839C11.4542 13.4094 10.5182 13.7503 9.50012 13.7503C7.54937 13.7503 5.89299 12.5064 5.26899 10.7705L2.82324 12.6549C4.06449 15.0838 6.58524 16.7503 9.50012 16.7503Z" fill="#4CAF50"/>
<path fill-rule="evenodd" clip-rule="evenodd" d="M16.8541 7.78113H16.25V7.75H9.5V10.75H13.7386C13.4416 11.5889 12.902 12.3123 12.206 12.8391C12.2064 12.8388 12.2068 12.8387 12.2071 12.8384L14.5284 14.8026C14.3641 14.9519 17 13 17 9.25C17 8.74713 16.9482 8.25625 16.8541 7.78113Z" fill="#1976D2"/>
</g>
</svg>
