<svg width="24" height="25" viewBox="0 0 24 25" fill="none" xmlns="http://www.w3.org/2000/svg">
<path d="M7.187 21.8776L7.18698 21.8776L7.18863 21.8793C7.21922 21.9099 7.25378 21.9368 7.2959 21.9555C7.33846 21.9744 7.38353 21.9826 7.43226 21.9826H21.753C21.8498 21.9826 21.9382 21.95 22.0028 21.8855C22.0673 21.821 22.1 21.7325 22.1 21.6356L22.0998 7.31488C22.0998 7.18713 22.0357 7.07091 21.9191 7.02645L15.2813 3.09285C15.2551 3.05779 15.2202 3.03752 15.1847 3.02742C15.1493 3.01732 15.1121 3.01739 15.0901 3.01743L15.0863 3.01743H2.24698C2.15022 3.01743 2.06177 3.0501 1.99725 3.11458C1.93273 3.17907 1.9 3.26754 1.9 3.36441V16.2037C1.9 16.2524 1.90821 16.2974 1.92709 16.34C1.94561 16.3817 1.97221 16.4161 2.0025 16.4465C2.00279 16.4468 2.00307 16.4471 2.00335 16.4474L7.187 21.8776ZM21.406 21.2887H7.77908V7.66173H12.5173V11.2654C12.5173 11.3621 12.5499 11.4506 12.6144 11.5151C12.6789 11.5796 12.7674 11.6124 12.8643 11.6124H16.0741C16.1709 11.6124 16.2593 11.5797 16.3239 11.5152C16.3884 11.4507 16.4211 11.3622 16.4211 11.2654L16.4209 7.66173H21.406L21.406 21.2887ZM13.2111 10.9185V7.66182H15.7272V10.9185H13.2111ZM11.5402 3.71117H14.9849L20.4748 6.96782H16.4253L11.5402 3.71117ZM12.9685 6.96799L8.08336 3.71132L10.2908 3.71117L15.1759 6.96784L12.9685 6.96799ZM7.54007 6.96799L3.28304 3.71117L6.83396 3.71117L11.7191 6.96783L7.54007 6.96799ZM2.59407 16.0648V4.06026L7.08535 7.48778V20.7688L2.59407 16.0648Z" fill="#5D6679" stroke="#5D6679" stroke-width="0.2"/>
</svg>
