<svg width="20" height="21" viewBox="0 0 20 21" fill="none" xmlns="http://www.w3.org/2000/svg">
<path d="M9.99992 0.500183C4.48613 0.500183 0 4.98631 0 10.5001C0 12.9654 0.898431 15.2233 2.38279 16.9684C2.4018 16.9977 2.4236 17.0254 2.44906 17.0508C2.45482 17.0566 2.46127 17.0603 2.46702 17.0657C4.30174 19.1679 6.99734 20.4998 10 20.4998C13.0027 20.4998 15.6982 19.1679 17.533 17.0657C17.5387 17.0604 17.5455 17.0564 17.5509 17.0508C17.5764 17.0254 17.5984 16.9973 17.6172 16.9684C19.1016 15.2231 20 12.9652 20 10.5001C20 4.98631 15.5139 0.500183 10.0001 0.500183H9.99992ZM9.99992 19.5C7.44414 19.5 5.13567 18.4276 3.49595 16.7111L4.18095 16.0261C4.84273 15.3645 5.72232 15 6.65758 15H13.3424C14.2776 15 15.1572 15.3645 15.8188 16.0259L16.5038 16.7109C14.8642 18.4274 12.5557 19.5 9.99983 19.5H9.99992ZM17.1561 15.9492L16.5259 15.319C15.6754 14.4685 14.5449 13.9999 13.3424 13.9999H6.65758C5.455 13.9999 4.32465 14.4685 3.47417 15.319L2.84395 15.9492C1.68829 14.4356 0.999992 12.547 0.999992 10.5001C0.999992 5.53769 5.03719 1.50022 9.99992 1.50022C14.9624 1.50022 18.9999 5.53742 18.9999 10.5001C18.9999 12.5471 18.3116 14.4357 17.1561 15.9492H17.1561ZM9.99992 5.00019C7.79449 5.00019 5.99986 6.7946 5.99986 9.00025C5.99986 11.2057 7.79427 13.0003 9.99992 13.0003C12.2054 13.0003 14 11.2059 14 9.00025C14 6.7946 12.2054 5.00019 9.99992 5.00019ZM9.99992 12.0001C8.34569 12.0001 6.99999 10.6544 6.99999 9.00021C6.99999 7.34598 8.34574 6.00027 9.99992 6.00027C11.6541 6.00027 12.9999 7.34602 12.9999 9.00021C12.9999 10.6544 11.6541 12.0001 9.99992 12.0001Z" fill="#5D6679"/>
</svg>
