<svg width="24" height="24" viewBox="0 0 24 24" fill="none" xmlns="http://www.w3.org/2000/svg">
<g clip-path="url(#clip0_383_1020)">
<path d="M11.9997 14.5C13.3804 14.5 14.4997 13.3807 14.4997 12C14.4997 10.6193 13.3804 9.50001 11.9997 9.50001C10.619 9.50001 9.49967 10.6193 9.49967 12C9.49967 13.3807 10.619 14.5 11.9997 14.5Z" stroke="#5D6679" stroke-width="1.2" stroke-linecap="round" stroke-linejoin="round"/>
<path d="M18.1663 14.5C18.0554 14.7514 18.0223 15.0302 18.0713 15.3005C18.1204 15.5708 18.2492 15.8203 18.4413 16.0167L18.4913 16.0667C18.6463 16.2215 18.7692 16.4053 18.8531 16.6076C18.937 16.8099 18.9802 17.0268 18.9802 17.2458C18.9802 17.4649 18.937 17.6817 18.8531 17.8841C18.7692 18.0864 18.6463 18.2702 18.4913 18.425C18.3366 18.58 18.1527 18.7029 17.9504 18.7868C17.7481 18.8706 17.5312 18.9138 17.3122 18.9138C17.0931 18.9138 16.8763 18.8706 16.6739 18.7868C16.4716 18.7029 16.2878 18.58 16.133 18.425L16.083 18.375C15.8866 18.1829 15.6372 18.054 15.3668 18.005C15.0965 17.956 14.8177 17.9891 14.5663 18.1C14.3199 18.2056 14.1097 18.381 13.9616 18.6046C13.8135 18.8282 13.7341 19.0902 13.733 19.3583V19.5C13.733 19.942 13.5574 20.366 13.2449 20.6785C12.9323 20.9911 12.5084 21.1667 12.0663 21.1667C11.6243 21.1667 11.2004 20.9911 10.8878 20.6785C10.5753 20.366 10.3997 19.942 10.3997 19.5V19.425C10.3932 19.1492 10.3039 18.8817 10.1434 18.6573C9.98293 18.4328 9.75862 18.2619 9.49967 18.1667C9.24833 18.0557 8.96951 18.0227 8.69918 18.0717C8.42885 18.1207 8.17941 18.2496 7.98301 18.4417L7.93301 18.4917C7.77822 18.6466 7.5944 18.7696 7.39207 18.8534C7.18974 18.9373 6.97287 18.9805 6.75384 18.9805C6.53481 18.9805 6.31794 18.9373 6.11561 18.8534C5.91328 18.7696 5.72946 18.6466 5.57467 18.4917C5.41971 18.3369 5.29678 18.1531 5.21291 17.9507C5.12903 17.7484 5.08586 17.5315 5.08586 17.3125C5.08586 17.0935 5.12903 16.8766 5.21291 16.6743C5.29678 16.4719 5.41971 16.2881 5.57467 16.1333L5.62467 16.0833C5.81679 15.8869 5.94566 15.6375 5.99468 15.3672C6.04369 15.0968 6.0106 14.818 5.89967 14.5667C5.79404 14.3202 5.61864 14.11 5.39506 13.9619C5.17149 13.8139 4.9095 13.7344 4.64134 13.7333H4.49967C4.05765 13.7333 3.63372 13.5577 3.32116 13.2452C3.0086 12.9326 2.83301 12.5087 2.83301 12.0667C2.83301 11.6246 3.0086 11.2007 3.32116 10.8882C3.63372 10.5756 4.05765 10.4 4.49967 10.4H4.57467C4.8505 10.3936 5.11801 10.3043 5.34242 10.1438C5.56684 9.98326 5.73777 9.75896 5.83301 9.50001C5.94394 9.24866 5.97703 8.96985 5.92801 8.69952C5.879 8.42919 5.75012 8.17974 5.55801 7.98334L5.50801 7.93334C5.35305 7.77855 5.23012 7.59474 5.14624 7.39241C5.06237 7.19008 5.0192 6.9732 5.0192 6.75418C5.0192 6.53515 5.06237 6.31827 5.14624 6.11594C5.23012 5.91361 5.35305 5.7298 5.50801 5.57501C5.6628 5.42005 5.84661 5.29712 6.04894 5.21324C6.25127 5.12937 6.46815 5.0862 6.68717 5.0862C6.9062 5.0862 7.12308 5.12937 7.32541 5.21324C7.52774 5.29712 7.71155 5.42005 7.86634 5.57501L7.91634 5.62501C8.11274 5.81712 8.36219 5.946 8.63252 5.99501C8.90285 6.04403 9.18166 6.01094 9.43301 5.90001H9.49967C9.74615 5.79437 9.95635 5.61897 10.1044 5.3954C10.2525 5.17182 10.3319 4.90983 10.333 4.64168V4.50001C10.333 4.05798 10.5086 3.63406 10.8212 3.3215C11.1337 3.00894 11.5576 2.83334 11.9997 2.83334C12.4417 2.83334 12.8656 3.00894 13.1782 3.3215C13.4907 3.63406 13.6663 4.05798 13.6663 4.50001V4.57501C13.6674 4.84317 13.7469 5.10516 13.8949 5.32873C14.043 5.55231 14.2532 5.72771 14.4997 5.83334C14.751 5.94427 15.0298 5.97736 15.3002 5.92835C15.5705 5.87933 15.8199 5.75046 16.0163 5.55834L16.0663 5.50834C16.2211 5.35338 16.4049 5.23045 16.6073 5.14658C16.8096 5.0627 17.0265 5.01953 17.2455 5.01953C17.4645 5.01953 17.6814 5.0627 17.8837 5.14658C18.0861 5.23045 18.2699 5.35338 18.4247 5.50834C18.5796 5.66313 18.7026 5.84695 18.7864 6.04928C18.8703 6.25161 18.9135 6.46848 18.9135 6.68751C18.9135 6.90654 18.8703 7.12341 18.7864 7.32574C18.7026 7.52807 18.5796 7.71189 18.4247 7.86668L18.3747 7.91668C18.1826 8.11308 18.0537 8.36252 18.0047 8.63285C17.9557 8.90318 17.9887 9.182 18.0997 9.43334V9.50001C18.2053 9.74648 18.3807 9.95669 18.6043 10.1048C18.8279 10.2528 19.0899 10.3323 19.358 10.3333H19.4997C19.9417 10.3333 20.3656 10.5089 20.6782 10.8215C20.9907 11.1341 21.1663 11.558 21.1663 12C21.1663 12.442 20.9907 12.866 20.6782 13.1785C20.3656 13.4911 19.9417 13.6667 19.4997 13.6667H19.4247C19.1565 13.6677 18.8945 13.7472 18.671 13.8953C18.4474 14.0433 18.272 14.2535 18.1663 14.5Z" stroke="#5D6679" stroke-width="1.2" stroke-linecap="round" stroke-linejoin="round"/>
</g>
<defs>
<clipPath id="clip0_383_1020">
<rect width="20" height="20" fill="white" transform="translate(2 2)"/>
</clipPath>
</defs>
</svg>
